<svg width="167" height="168" viewBox="0 0 167 168" fill="none" xmlns="http://www.w3.org/2000/svg">
<path d="M83.1349 24.6364C80.3168 27.7155 77.89 30.2466 77.7596 30.2466C77.6291 30.2466 77.4204 29.8551 77.2899 29.3855C77.1333 28.9419 76.5854 27.1153 76.0374 25.3409L75.0719 22.1575L74.0804 21.8966C73.5324 21.74 72.9844 21.453 72.8539 21.2181C72.6713 20.8789 72.5408 20.8789 71.8102 21.2442C71.3666 21.4791 70.8708 21.6095 70.7143 21.5051C70.5838 21.4269 70.4533 21.453 70.4533 21.5573C70.4533 21.6878 69.2269 22.1314 67.7396 22.5489C65.2346 23.2534 64.9997 23.3839 64.8693 24.0362C64.791 24.4276 64.5039 24.9495 64.2169 25.2105C63.9299 25.4453 63.7472 25.7062 63.7994 25.7845C64.0604 26.2542 68.3658 40.3448 68.3397 40.6841C68.3136 40.8928 68.418 41.4147 68.6007 41.8583C68.8094 42.3541 68.8616 43.1108 68.7572 43.8936C68.6268 45.0156 68.6529 45.1722 69.1486 45.3026C69.4357 45.3809 69.6705 45.6158 69.6705 45.7984C69.6705 46.0072 69.8532 46.1637 70.0619 46.1637C70.2707 46.1637 70.5577 46.3986 70.7143 46.6856C70.8708 46.9726 71.1579 47.2075 71.3666 47.2075C71.5754 47.2075 71.758 47.3641 71.758 47.5728C71.758 47.7555 71.9929 47.9903 72.2799 48.0686C72.5669 48.1469 72.8018 48.3817 72.8018 48.6166C72.8018 48.8514 72.9844 49.0341 73.1932 49.0341C73.4019 49.0341 73.6889 49.2689 73.8455 49.5559C74.0021 49.843 74.263 50.0256 74.3935 49.9212C74.55 49.843 74.7327 49.9995 74.811 50.3126C74.8893 50.6258 75.0719 50.8606 75.2285 50.8606C75.3589 50.8606 75.9069 51.3042 76.4288 51.8783C77.1594 52.6611 77.4725 52.8437 77.89 52.6611C78.6207 52.3741 80.4211 52.3741 80.8908 52.6872C81.1779 52.8698 81.4649 52.7394 81.9346 52.2958C82.5869 51.6956 84.4918 51.0433 98.9477 46.5551L104.584 44.7808L104.871 43.7109C105.001 43.1108 105.367 42.3801 105.68 42.067C106.254 41.4408 106.358 40.945 105.941 40.945C105.81 40.945 105.68 40.658 105.68 40.2926C105.68 39.9273 105.549 39.6403 105.393 39.6403C105.236 39.6403 105.184 39.4576 105.262 39.2228C105.367 38.988 105.315 38.6487 105.158 38.4661C105.001 38.2834 104.897 38.0225 104.923 37.9181C104.975 37.6833 104.923 37.5006 104.48 36.3786C104.375 36.0916 104.245 35.7262 104.245 35.5958C104.166 35.2044 103.853 34.3694 103.566 33.8214C103.436 33.5605 103.384 33.2473 103.462 33.1169C103.54 32.9864 103.488 32.8298 103.331 32.7255C103.201 32.6472 103.071 32.2819 103.071 31.9166C103.071 31.4208 102.94 31.2903 102.418 31.2903C101.244 31.2903 100.461 29.0984 101.061 27.4545C101.244 26.9587 101.166 26.8022 100.618 26.5934C100.252 26.463 99.9393 26.2281 99.9393 26.0976C99.9393 25.9672 99.7044 25.8106 99.4174 25.7323C99.1304 25.6541 98.8955 25.4192 98.8955 25.2105C98.8955 25.0017 98.6607 24.7669 98.3736 24.6886C98.0866 24.6103 97.8518 24.3494 97.8518 24.1145C97.8518 23.8797 97.7474 23.7492 97.6169 23.8536C97.4865 23.9319 97.1994 23.7753 97.0168 23.5144C96.8341 23.2534 96.4688 22.9664 96.2339 22.862C95.973 22.7837 95.7643 22.5228 95.7643 22.288C95.7643 22.0792 95.5816 21.8966 95.3729 21.8966C95.138 21.8966 94.9032 21.7139 94.8249 21.5051C94.7205 21.2964 94.5118 21.1137 94.3291 21.1137C94.1204 21.1137 93.8855 20.8789 93.8072 20.5919C93.7289 20.3048 93.4941 20.07 93.2854 20.07C93.1027 20.07 92.8939 19.8091 92.8157 19.522C92.6852 19.0523 92.5547 19.0001 92.0589 19.1567C91.2761 19.4437 89.5018 19.4698 88.8233 19.2089C88.3536 19.0523 87.5708 19.783 83.1349 24.6364ZM89.6322 21.7139C90.0758 21.7139 90.6499 21.6356 90.9369 21.5312C91.511 21.3486 91.3283 21.2181 96.0513 25.5497L98.765 28.0286L98.8172 29.4637C98.8433 30.2466 98.8955 31.1337 98.9477 31.4469C99.026 31.9948 98.0605 33.0647 86.0052 46.1116C83.1349 49.1906 81.9607 50.2866 81.6736 50.1561C81.1518 49.9212 79.56 49.9212 79.0121 50.1822C78.6989 50.3387 77.8639 49.7125 75.6199 47.6511C74.0021 46.1637 72.2799 44.5981 71.8363 44.1806C71.0535 43.4761 71.0013 43.3195 71.2361 42.5367C71.4188 41.9105 71.3927 41.4408 71.1318 40.8145L70.7664 39.9534L72.4886 38.0486C73.4541 37.0048 75.7764 34.4737 77.6291 32.4645C79.5079 30.4292 82.5608 27.1153 84.4135 25.0539C87.2055 22.0009 87.8839 21.3747 88.3275 21.5312C88.6146 21.6356 89.2147 21.7139 89.6322 21.7139ZM72.9322 22.9403C73.0105 23.0708 73.4541 23.2795 73.8977 23.41C74.6544 23.5926 74.7327 23.7753 75.8286 27.2458C76.4549 29.255 76.9507 31.0033 76.8724 31.1598C76.8202 31.2903 76.2722 29.7769 75.6199 27.7676C74.4718 24.1667 74.4457 24.1406 73.3758 23.5666L72.306 22.9925L69.4357 23.9058C66.6175 24.793 66.5393 24.8451 65.9913 25.915L65.4433 27.0109L67.296 32.9081C68.3136 36.1437 69.2008 38.988 69.3052 39.2228C69.3835 39.4576 69.3574 39.6403 69.2269 39.6403C69.0704 39.6403 68.8355 39.1445 68.6529 38.5183C68.4702 37.9181 67.5569 34.9956 66.6436 32.0209L64.9475 26.6195L65.4694 26.0976C65.7825 25.7845 66.0174 25.3409 66.0174 25.08C66.0174 24.7147 66.6436 24.4016 68.966 23.6448C72.0972 22.6272 72.6713 22.5228 72.9322 22.9403ZM69.1486 26.6195C69.1486 26.9066 70.0619 26.8283 71.0535 26.463C71.3405 26.3325 71.4971 26.4108 71.4971 26.6717C71.4971 26.9066 71.1579 27.1414 70.6882 27.2458C70.1663 27.3762 69.801 27.6633 69.6183 28.1069L69.3574 28.8114L68.8877 27.7676C68.6268 27.2197 68.4702 26.6456 68.5224 26.5412C68.7311 26.2281 69.1486 26.2803 69.1486 26.6195ZM74.1064 26.4369C74.1064 26.4891 74.1847 26.7239 74.263 26.9326C74.4196 27.3501 73.7672 27.6894 73.2193 27.4806C72.6974 27.2719 73.0366 26.3325 73.6107 26.3325C73.8977 26.3325 74.1064 26.3847 74.1064 26.4369ZM72.2799 29.0984C72.4625 29.5942 72.5408 30.0639 72.4886 30.09C72.2016 30.3509 69.9314 30.9511 69.8271 30.8206C69.7749 30.7162 69.6444 30.2726 69.5661 29.803C69.3574 28.8375 69.801 28.3939 70.0358 29.3333C70.1402 29.6986 70.3229 29.9856 70.4533 29.9856C70.6099 29.9856 70.6621 29.6986 70.5577 29.3333C70.375 28.5505 70.8708 28.4461 71.1057 29.2028C71.3666 30.0378 71.758 29.803 71.6014 28.9419C71.3666 27.8198 71.9146 27.9503 72.2799 29.0984ZM68.1832 29.2289C68.3658 29.9073 67.7396 30.3509 67.3221 29.8551C67.1394 29.6464 67.0611 29.3072 67.1394 29.1245C67.3221 28.6026 68.0527 28.6809 68.1832 29.2289ZM74.9154 29.2028C74.9936 29.4116 74.9414 29.7247 74.7849 29.8812C74.4196 30.2987 73.8455 29.8551 73.8455 29.1506C73.8455 28.5766 74.6805 28.6026 74.9154 29.2028ZM72.5669 31.6295C72.1233 32.0731 72.2277 32.3341 72.8279 32.3341C73.715 32.3341 73.2454 32.9342 72.045 33.3256C70.8708 33.717 70.2968 33.5344 71.0274 33.0125C71.4449 32.6994 71.4449 32.6472 70.8447 32.3862C70.4794 32.2297 70.1924 31.9166 70.1924 31.6817C70.1924 31.3686 70.2968 31.3425 70.8447 31.6034C71.4188 31.8644 71.5493 31.8122 72.0711 31.1337C72.593 30.5075 72.6713 30.4553 72.7496 30.8728C72.8018 31.1337 72.7235 31.473 72.5669 31.6295ZM68.9138 31.5512C69.1747 32.1775 68.6789 32.6211 68.1049 32.2819C67.7396 32.047 67.6874 31.8644 67.87 31.4991C68.1571 30.9511 68.6789 30.9772 68.9138 31.5512ZM75.7504 31.6556C75.933 32.1253 75.4633 32.595 74.9936 32.4123C74.7849 32.3341 74.6283 32.047 74.6283 31.7861C74.6283 31.212 75.5416 31.1076 75.7504 31.6556ZM102.496 36.7439C103.253 39.0141 103.853 41.0494 103.853 41.2581C103.853 41.493 103.671 41.8061 103.462 41.9887C103.253 42.1714 102.966 42.7455 102.81 43.2934C102.601 44.1023 102.366 44.3633 101.688 44.572C91.4588 47.8076 84.7005 49.8169 84.4657 49.7386C84.0221 49.582 84.3352 49.4776 95.8686 45.8767C99.9915 44.5981 102.131 43.8153 102.209 43.5544C102.262 43.3456 102.549 42.6672 102.836 42.067L103.384 40.9972L102.131 37.057C101.401 34.6825 100.774 33.1169 100.566 33.1169C100.383 33.1169 100.148 32.9864 100.07 32.8559C99.9915 32.6994 100.174 32.595 100.539 32.595C101.113 32.595 101.27 32.9342 102.496 36.7439ZM73.7933 33.8997C74.2369 34.6303 73.8977 35.2044 73.4019 34.552C73.0366 34.0041 72.9583 33.3778 73.2714 33.3778C73.3758 33.3778 73.6107 33.6126 73.7933 33.8997ZM69.7749 34.0823C69.9836 34.5781 69.5139 34.9695 68.966 34.7608C68.7833 34.6825 68.6268 34.3955 68.6268 34.1345C68.6268 33.5083 69.54 33.4561 69.7749 34.0823ZM71.8624 34.813C71.9668 35.2566 72.2016 35.4653 72.5669 35.4653C73.0366 35.4653 73.0627 35.5175 72.8018 35.8567C72.6191 36.0655 72.3843 36.2481 72.2538 36.2481C71.8363 36.2481 71.2361 35.4131 71.2361 34.7869C71.2361 33.978 71.6536 33.978 71.8624 34.813ZM70.5838 36.4569C70.6621 36.6656 70.5838 37.0048 70.4272 37.2136C70.1402 37.5267 70.0619 37.5267 69.7227 37.1875C69.5139 36.9787 69.4096 36.6395 69.4879 36.4308C69.6705 35.9611 70.4011 35.9611 70.5838 36.4569ZM98.8955 36.3786C98.8955 36.5873 98.7129 36.77 98.5041 36.77C98.0083 36.77 98.0083 37.4484 98.5041 38.8314C98.8433 39.8491 98.8433 39.9012 98.3736 39.9012C98.0083 39.9012 97.7735 39.5881 97.5125 38.6487C97.2255 37.7094 97.0168 37.4223 96.5993 37.4223C95.425 37.4223 95.7382 36.8222 97.1994 36.3003C98.3214 35.9089 98.8955 35.935 98.8955 36.3786ZM95.7643 38.9619C95.7643 39.1706 95.425 39.4055 94.9814 39.5098C94.5379 39.6142 94.1986 39.8491 94.1986 40.0578C94.1986 40.3448 94.3552 40.397 94.7988 40.2666C95.6599 39.9795 96.3644 40.0056 96.4688 40.3187C96.521 40.4753 96.0774 40.7362 95.4772 40.9189C94.9032 41.1016 94.2508 41.3103 94.0682 41.3625C93.8594 41.4408 93.6246 41.2059 93.468 40.7623C93.2593 40.1361 93.3114 39.9273 93.8855 39.3011C94.59 38.5444 95.7643 38.3356 95.7643 38.9619ZM92.7374 41.1016C93.2593 41.3103 93.2593 41.6234 92.7374 41.8322C92.1894 42.0409 91.8502 41.8061 92.0329 41.3364C92.1894 40.8928 92.1894 40.8928 92.7374 41.1016ZM98.4519 42.2497C98.6346 42.2497 98.765 42.5367 98.765 42.902C98.765 43.7109 97.6952 44.0501 97.1994 43.3717C96.808 42.8237 97.2516 41.9105 97.7996 42.1192C98.0083 42.1975 98.2954 42.2497 98.4519 42.2497ZM95.2685 43.2934C95.3989 43.2934 95.5033 43.5805 95.5033 43.9197C95.5033 44.7025 94.5118 45.0417 94.0421 44.4155C93.6768 43.8675 94.1204 42.9542 94.6683 43.163C94.8771 43.2412 95.138 43.2934 95.2685 43.2934ZM92.0329 44.4416C92.0329 44.4416 92.1111 44.7547 92.1633 45.0939C92.2155 45.5897 92.1111 45.7462 91.6154 45.8245C90.8064 45.9289 90.2324 45.1983 90.6499 44.5459C90.8847 44.1545 91.6154 44.1023 92.0329 44.4416ZM88.9016 45.955C88.8233 46.7117 87.91 47.2597 87.5969 46.7378C87.4404 46.5291 87.5447 46.2159 87.8318 45.8767C88.4319 45.1983 88.9799 45.2505 88.9016 45.955Z" fill="black"/>
<path d="M86.9708 23.0709C85.64 24.5582 77.4727 33.4301 77.1335 33.7693C76.9769 33.8998 75.62 35.361 74.1327 36.9788L71.4189 39.9274L71.706 40.8929C71.8364 41.4148 71.9147 42.2237 71.8364 42.6412C71.7321 43.3718 71.9669 43.6328 75.046 46.4248L78.3599 49.4256L80.2908 49.4517H82.2218L83.2916 48.2774C83.8657 47.599 85.066 46.3204 85.9532 45.381C91.7199 39.3273 98.4782 31.6557 98.3999 31.3165C98.3477 31.0817 98.2694 30.2988 98.2433 29.5682L98.2172 28.2113L94.7729 25.0801C91.4589 22.0271 91.3024 21.9227 90.5718 22.1837C90.0499 22.3663 89.5019 22.3663 88.8757 22.2098C87.9885 21.9488 87.9102 22.001 86.9708 23.0709ZM91.198 26.0717C91.2763 26.2021 91.2241 26.5674 91.0414 26.8806C90.7805 27.4024 90.8588 27.559 91.8243 28.3418C92.3983 28.8376 92.8941 29.4117 92.8941 29.5943C92.8941 30.3771 92.2939 30.2467 91.1719 29.2029C90.0499 28.1592 89.9716 28.1331 89.5019 28.5506C89.0322 28.9681 88.4582 28.9159 88.4582 28.4462C88.4582 28.1331 90.5457 25.8107 90.8066 25.8107C90.9371 25.8107 91.1197 25.9151 91.198 26.0717ZM87.0491 26.6718C87.2579 27.1415 87.2057 27.3503 86.8664 27.7156C86.475 28.1331 86.3446 28.1592 85.8749 27.846C85.5618 27.6634 85.3269 27.2459 85.3269 26.8545C85.3269 25.9412 86.6316 25.8107 87.0491 26.6718ZM84.3875 30.4815C83.7874 31.1599 82.7958 30.6642 82.7958 29.6987C82.7958 29.0985 82.9263 28.942 83.4743 28.8898C84.4136 28.7854 84.9616 29.777 84.3875 30.4815ZM88.0668 30.0901C87.7014 30.5598 87.4144 31.0295 87.4144 31.1077C87.4144 31.4731 87.9624 31.2643 88.3799 30.7685C89.2671 29.7248 90.076 30.3249 89.2149 31.3948C88.3799 32.4646 88.9279 32.856 89.7889 31.8123C90.4152 31.0817 90.5979 31.0034 90.911 31.2643C91.2763 31.5774 91.1719 31.7601 90.1804 32.8038L89.0322 33.9781L87.4666 32.569L85.901 31.1599L86.9447 29.9074C87.7797 28.942 88.0668 28.7332 88.3538 28.9681C88.6408 29.2029 88.5886 29.4117 88.0668 30.0901ZM81.6999 33.404C81.2824 33.8737 81.1258 33.8998 80.6561 33.5867C80.0299 33.1953 79.8472 31.6557 80.4474 31.8906C80.6561 31.9688 80.9693 31.9167 81.1519 31.8123C81.3868 31.6557 81.6216 31.7862 81.8564 32.2298C82.1435 32.8038 82.1174 32.9604 81.6999 33.404ZM85.5879 32.3863C85.5879 33.8998 85.8227 34.1607 87.1796 34.1607C88.5364 34.1607 88.9279 34.4478 88.3277 34.9435C88.0929 35.1523 87.5449 35.2306 86.8925 35.1262C85.7444 34.9696 85.5618 35.2567 86.2924 36.0395C86.6055 36.3787 86.6316 36.6135 86.4489 36.7962C86.0836 37.1615 85.7183 36.9528 84.1788 35.5176C83.1611 34.5782 83.0046 34.3173 83.2655 34.0042C83.5264 33.6649 83.6308 33.6649 84.0222 34.0303C84.6746 34.6304 84.805 34.526 84.805 33.2996C84.805 32.6734 84.8833 32.0732 84.9877 31.9949C85.3269 31.6557 85.5879 31.8123 85.5879 32.3863ZM94.9555 32.9604C95.4513 33.2735 94.3293 34.1085 93.5986 33.9781C93.0246 33.8737 92.9202 33.7171 92.9724 33.0909C92.9985 32.569 93.155 32.3342 93.4682 32.3342C93.703 32.3342 93.99 32.2037 94.0944 32.021C94.2249 31.8123 94.3554 31.8906 94.4858 32.2559C94.5902 32.569 94.7989 32.8821 94.9555 32.9604ZM79.2993 35.2567C79.5863 35.7263 79.5602 35.8568 79.1166 36.3004C78.6991 36.744 78.5164 36.7701 78.0989 36.4831C77.7858 36.3004 77.5771 35.8829 77.551 35.4654C77.551 34.8653 77.6554 34.7609 78.2555 34.7348C78.6991 34.7348 79.0905 34.9174 79.2993 35.2567ZM92.2157 35.3349C92.6071 35.9351 92.6071 36.0134 92.1374 36.4831C91.6938 36.9267 91.5111 36.9528 90.9632 36.6918C90.5718 36.5092 90.3369 36.2221 90.4152 36.0395C90.4935 35.8307 90.5457 35.5176 90.5457 35.3349C90.5457 35.1262 90.8066 34.9174 91.1458 34.8653C91.4589 34.8131 91.746 34.7348 91.746 34.7087C91.7721 34.7087 91.9808 34.9696 92.2157 35.3349ZM82.3522 36.6396C81.9869 36.9788 81.6738 37.3963 81.6738 37.5529C81.6738 37.9182 82.6393 38.8576 83.0307 38.8576C83.4482 38.8576 84.2832 38.0487 84.2832 37.6312C84.2832 37.4485 84.518 37.292 84.8311 37.292C85.3008 37.292 85.353 37.3963 85.1964 37.9965C84.6485 40.1884 81.9347 40.5015 80.9693 38.4923C80.63 37.7356 80.6039 37.4746 80.8649 36.8223C81.2563 35.8568 82.7958 34.9957 82.9263 35.622C82.9785 35.8307 82.7175 36.3004 82.3522 36.6396ZM76.7682 38.9359C76.3246 39.3534 76.1941 39.3795 75.7244 39.0924C75.0982 38.701 75.0982 37.3703 75.7505 37.5007C75.9854 37.5268 76.2463 37.4485 76.3246 37.292C76.4289 37.1093 76.6638 37.2659 76.8725 37.7095C77.2118 38.3618 77.2118 38.4923 76.7682 38.9359ZM89.6324 38.3879C89.8411 38.8576 89.7889 39.0924 89.4497 39.4317C88.7974 40.084 87.7014 39.5882 87.8841 38.7271C87.9885 38.1792 88.3016 37.9443 89.1105 37.8399C89.2671 37.8399 89.5019 38.0748 89.6324 38.3879ZM81.1519 39.9274C82.3783 41.0495 82.5088 41.2582 82.1957 41.5974C81.8564 41.9106 81.5955 41.7801 80.2647 40.5798C79.2993 39.7448 78.7774 39.0924 78.9079 38.9098C79.221 38.3879 79.6646 38.5706 81.1519 39.9274ZM78.5686 40.7363C78.2294 41.2843 78.3077 41.3887 79.4558 42.3803C80.5257 43.3196 80.63 43.5023 80.2647 43.7893C79.9255 44.0763 79.6646 43.972 78.6208 43.0587C77.4988 42.1193 77.3422 42.041 77.0552 42.4063C76.7421 42.8499 75.8027 42.7195 75.9854 42.2759C76.0375 42.1454 76.5855 41.4931 77.2118 40.8146C78.0468 39.9274 78.4382 39.6926 78.6469 39.9013C78.8296 40.084 78.8296 40.3188 78.5686 40.7363ZM86.8925 41.0756C86.8925 41.2582 87.023 41.467 87.2057 41.5192C87.4144 41.5974 87.31 41.8323 86.9447 42.1976C86.475 42.6673 86.2663 42.7195 85.7705 42.4846C85.3008 42.2759 85.1964 42.041 85.2747 41.5192C85.353 40.9451 85.5096 40.8146 86.1358 40.7624C86.6316 40.7363 86.8925 40.8407 86.8925 41.0756ZM84.6485 43.6849C85.0399 44.2851 85.0399 44.3634 84.5702 44.8331C84.1266 45.2767 83.9439 45.3028 83.396 45.0418C83.0046 44.8592 82.7697 44.5721 82.848 44.3895C82.9263 44.1807 82.9785 43.8676 82.9785 43.6328C82.9785 43.3979 83.135 43.2935 83.3699 43.3718C83.5786 43.4762 83.8135 43.424 83.8918 43.2935C84.1266 42.9282 84.1788 42.9543 84.6485 43.6849Z" fill="black"/>
<path d="M40.5762 64.6903C40.9154 65.3427 40.9676 67.0388 40.9676 75.9106C40.9676 82.982 40.8632 86.7656 40.6545 87.5746L40.3674 88.7749L42.5593 90.8102L44.7512 92.8455L51.1703 92.8716H57.5893L59.9639 90.8363L62.3384 88.8271L62.1557 87.0005C61.8948 84.2606 61.947 64.8991 62.2079 64.3511C62.4167 63.9336 62.1035 63.9075 57.8242 63.9075H53.2056L53.6231 64.6903C53.9884 65.3688 54.0145 66.7778 53.9623 74.893L53.884 84.3128L53.0229 85.0696C51.5095 86.4264 49.422 85.9567 48.6392 84.1041C48.0912 82.7733 48.1173 65.7602 48.6653 64.6903L49.0828 63.9075H44.6207H40.1587L40.5762 64.6903Z" fill="black"/>
<path d="M27.9205 64.795C27.9205 64.8472 28.1032 65.3951 28.338 66.0214C28.7034 67.0651 28.7034 69.0744 28.4424 86.3484C28.2076 101.509 28.051 105.762 27.764 106.675C27.1899 108.45 27.2421 108.606 28.3902 108.424C28.9121 108.345 34.9398 107.797 41.7502 107.223C48.5607 106.623 54.4057 106.101 54.6927 106.049C55.2146 105.945 55.2407 105.788 55.1363 104.301C54.9276 101.9 55.3973 100.543 56.8585 99.1344C58.2415 97.7775 60.3551 96.9425 63.1732 96.6294C64.7388 96.4728 65.3651 96.1597 65.078 95.69C64.9998 95.5856 64.4518 95.7161 63.8516 95.977C63.1471 96.2901 61.7119 96.525 60.0159 96.6294C58.5024 96.7337 52.9705 97.1773 47.6996 97.5948C42.4287 98.0123 37.784 98.3516 37.3665 98.3516H36.6098L36.7402 82.878C36.8446 68.8134 36.8968 67.3 37.3143 66.0475L37.784 64.6906H32.8523C30.1385 64.6906 27.9205 64.7428 27.9205 64.795Z" fill="black"/>
<path d="M70.949 66.83C68.1309 69.5699 68.2353 69.3872 68.7832 71.005C69.1746 72.2575 69.2268 73.4056 69.0963 84.1824L68.9398 96.0028H70.2967C72.0971 96.0028 74.5499 96.6552 75.6981 97.4641C77.2115 98.5078 78.2813 101.091 78.2813 103.7C78.2813 104.483 78.3596 104.614 78.8815 104.614C79.1946 104.588 79.8731 104.248 80.3688 103.831C80.8646 103.387 81.3865 103.048 81.5431 103.048C81.6735 103.048 81.9606 102.944 82.1432 102.813C82.4303 102.657 82.352 102.448 81.8301 101.926C81.0473 101.143 80.8907 99.3689 81.5431 98.4556C82.8999 96.4986 86.7096 96.6813 87.5446 98.7166C88.1187 100.1 88.0143 100.856 87.1271 101.874C86.6835 102.37 86.4487 102.787 86.5792 102.787C86.7357 102.787 87.1793 103.126 87.5707 103.544L88.3013 104.327L88.5884 103.753C88.771 103.361 89.1363 103.153 89.7887 103.1C90.7281 103.022 90.7281 102.996 90.9107 101.665C91.1456 99.656 91.537 98.4556 92.2154 97.6467C92.7373 97.0466 93.6767 94.5938 93.6767 93.8892C93.6767 93.7849 92.8938 94.0458 91.9284 94.4372C90.2845 95.1156 89.7104 95.1939 84.309 95.5071L78.4379 95.8202L77.342 94.5938C76.4809 93.6805 76.1678 93.0803 76.0373 92.1671C75.9329 91.4886 75.9068 87.3397 75.9851 82.956L76.1156 74.9452L76.8462 73.8753C78.2292 71.7878 77.8638 71.8661 87.5446 71.8922C96.0512 71.9183 96.1817 71.9183 97.1471 72.5185C97.6951 72.8316 98.1909 73.0403 98.2431 72.9881C98.3213 72.936 98.0082 71.0833 97.5385 68.9175L96.7035 64.9513H84.8048H72.906L70.949 66.83Z" fill="black"/>
<path d="M118.466 69.1785C116.613 70.8485 116.118 71.4487 116.196 71.8662C117.37 76.7718 117.474 79.7987 116.613 83.217L116.065 85.3828L118.91 88.227L121.78 91.0451H127.051H132.348L133.105 91.8018C133.809 92.5063 133.861 92.7151 133.861 94.4373C133.861 96.4726 133.366 97.9078 132.504 98.3774C132.165 98.5601 130.052 98.5601 125.694 98.3253C120.58 98.0904 119.171 97.9338 118.231 97.5424C117.605 97.2554 117.031 97.0728 116.979 97.1249C116.9 97.2293 118.675 105.736 118.805 105.788C118.831 105.814 121.023 106.023 123.685 106.284C126.346 106.545 130.73 107.067 133.444 107.458L138.376 108.163L139.341 106.832C139.863 106.127 141.089 104.431 142.055 103.1L143.803 100.648L143.412 98.6906C142.89 96.2899 142.89 93.0543 143.386 90.7842L143.725 89.1142L140.959 86.1134L138.167 83.1387L133.209 83.2953C127.808 83.4779 127.442 83.4257 126.451 82.0949C125.694 81.0512 125.694 78.5984 126.451 77.5546C127.521 76.0673 128.277 75.9107 133.757 75.9107C138.376 75.9107 138.871 75.9629 140.646 76.5631C141.689 76.9284 142.603 77.1632 142.655 77.111C142.759 77.0067 140.724 67.6651 140.515 67.2998C140.411 67.1432 136.758 67.0388 130.6 67.0388H120.841L118.466 69.1785Z" fill="black"/>
<path d="M97.9563 76.3546C98.4781 78.1812 98.5303 77.6593 97.0691 87.3923C96.6255 90.3409 96.208 93.2634 96.1036 93.9157L95.9731 95.0899L98.0867 95.0117C100.67 94.8812 102.262 95.5074 102.914 96.9165C103.436 97.9863 103.201 98.7692 102.027 99.7346C100.827 100.778 100.305 100.648 99.6263 99.1867C99.261 98.456 98.8174 97.9342 98.5303 97.8559C97.6431 97.6993 97.33 98.5343 97.33 100.987V103.283L98.713 103.362C99.8872 103.44 100.07 103.518 100.148 104.014C100.253 104.692 100.644 104.771 101.322 104.249C101.662 103.988 101.766 103.518 101.766 102.318C101.766 100.857 101.818 100.7 102.366 100.57C108.055 99.3171 107.637 99.2649 107.924 101.248L108.159 102.84L109.49 103.283C110.22 103.518 111.264 104.092 111.838 104.562C112.699 105.267 113.065 105.397 114.239 105.397C115.57 105.397 115.648 105.371 115.517 104.797C115.387 104.275 114.056 97.5167 112.334 88.436C111.995 86.6356 111.447 83.8696 111.16 82.304C110.69 79.9034 110.638 79.2249 110.873 78.1812C111.447 75.7023 112.047 75.911 104.48 75.911C98.2694 75.911 97.8258 75.9371 97.9563 76.3546ZM105.497 86.7921C106.019 89.0623 106.463 91.1498 106.463 91.4368C106.463 91.8543 106.098 92.0892 104.48 92.5588C103.384 92.8981 102.47 93.1329 102.444 93.0807C102.34 92.8981 104.219 82.6954 104.349 82.6954C104.454 82.6954 104.949 84.5481 105.497 86.7921Z" fill="black"/>
<path d="M95.9729 96.6292C93.3114 97.3859 92.1111 99.0298 91.9023 102.187L91.7718 104.066L90.5976 104.144C88.8754 104.249 88.8232 104.875 90.5193 104.875H91.8501V111.32C91.8501 121.027 91.1978 124.523 89.1625 125.75C87.8317 126.585 86.9706 126.428 85.7703 125.176C84.9614 124.315 84.6482 124.158 84.309 124.367C84.0742 124.497 83.8654 124.941 83.8132 125.306C83.6828 126.428 84.9614 126.924 87.8056 126.898C90.5454 126.872 91.5892 126.507 93.2853 124.941C95.5554 122.853 95.9207 121.157 96.1817 111.581L96.3643 104.875H97.93C99.2868 104.875 99.4434 104.823 99.1564 104.483C98.9476 104.222 98.3736 104.092 97.5386 104.092H96.2339L96.3382 101.196C96.4165 98.4036 96.4426 98.2731 97.1472 97.6729C98.217 96.7597 98.8432 96.8901 100.096 98.2209C100.696 98.8733 101.296 99.3951 101.453 99.3951C101.896 99.3951 102.34 98.4036 102.157 97.8556C101.792 96.6814 98.217 96.0029 95.9729 96.6292Z" fill="black"/>
<path d="M64.5824 97.9339C58.8418 98.7689 56.1019 100.856 56.4411 104.196C56.5455 105.24 56.7282 105.632 57.4066 106.258C58.1633 106.936 58.3982 107.015 59.468 106.884C61.3728 106.675 62.521 104.823 61.425 103.727C60.9293 103.205 60.4335 103.205 60.016 103.701C59.5724 104.223 58.2938 104.196 58.085 103.675C57.511 102.187 58.4503 100.543 60.303 99.8127C61.5294 99.3169 63.0428 99.1864 63.4082 99.5518C63.5125 99.6822 63.7996 104.014 64.0344 109.154C64.3997 117.948 64.478 118.574 64.9738 119.07C65.9393 120.061 68.653 119.592 68.9661 118.418C69.0444 118.131 68.9139 113.851 68.7052 108.893C68.2355 98.6385 68.2616 98.6124 69.9055 98.6124C70.7144 98.6124 71.0536 98.7689 71.6016 99.3952C73.7413 101.952 72.8541 108.267 70.323 108.267C69.488 108.267 69.488 108.58 70.4274 110.12C70.871 110.798 72.2539 113.251 73.5586 115.547C76.7682 121.236 77.0813 121.731 78.3338 122.619C79.2732 123.297 79.6124 123.401 81.1258 123.375C82.848 123.375 85.066 122.749 85.2486 122.201C85.3008 122.045 84.9877 121.992 84.4397 122.045C83.683 122.123 83.3699 121.992 82.4044 121.105C81.3868 120.14 80.3952 118.652 76.8203 112.52C76.1419 111.32 75.0982 109.885 74.5502 109.311C73.9761 108.737 73.5586 108.241 73.6108 108.189C73.663 108.137 74.211 107.797 74.8111 107.406C76.2463 106.493 76.9769 105.084 76.9769 103.205C76.9769 100.752 76.0375 99.2647 73.8457 98.2993C72.3322 97.6208 67.8702 97.4382 64.5824 97.9339Z" fill="black"/>
<path d="M82.7694 99.2127C81.543 100.517 82.5607 102.266 84.5177 102.266C86.0833 102.24 87.0227 101.144 86.5791 99.865C86.266 98.9517 85.6658 98.6125 84.3351 98.6125C83.6305 98.6125 83.1608 98.7952 82.7694 99.2127Z" fill="black"/>
<path d="M82.587 104.249C82.013 104.458 81.3606 104.823 81.1519 105.032C80.8127 105.397 80.8388 105.423 81.465 105.266C82.6131 104.979 82.7175 105.553 82.7175 112.129C82.7175 117.87 82.7436 118.131 83.2655 118.6C84.0222 119.279 85.8749 119.279 86.6316 118.574C87.2056 118.052 87.2056 117.974 87.1013 111.607C87.023 105.423 86.9969 105.136 86.475 104.588C85.7444 103.883 83.97 103.701 82.587 104.249Z" fill="black"/>
<path d="M103.775 104.457C102.209 104.901 101.27 105.788 101.087 107.014C100.957 107.797 101.035 108.084 101.583 108.632C102.392 109.441 102.809 109.467 103.592 108.841C104.323 108.241 104.166 107.093 103.305 106.832C102.027 106.414 103.436 105.136 105.184 105.136C107.037 105.136 108.08 107.014 107.219 108.867C106.88 109.598 106.593 109.78 103.671 110.876C102.079 111.477 101.296 111.946 100.618 112.703C99.7304 113.668 99.6782 113.851 99.6782 115.469C99.6782 117.139 99.7304 117.243 100.696 118.209C101.609 119.122 101.844 119.226 103.044 119.226C104.453 119.226 105.654 118.757 106.645 117.869L107.193 117.348L107.611 118.157C108.133 119.122 108.759 119.487 109.985 119.487C111.055 119.487 112.099 119.018 112.829 118.209L113.325 117.661L112.464 117.843L111.603 118L111.76 112.912C111.916 108.006 111.89 107.771 111.342 106.675C110.298 104.614 106.802 103.596 103.775 104.457ZM107.193 113.512C107.245 115.704 107.193 116.095 106.724 116.695C106.071 117.53 104.767 117.661 104.219 116.93C103.749 116.304 103.749 113.381 104.245 112.442C104.767 111.45 105.654 110.85 106.463 110.929C107.115 111.007 107.115 111.059 107.193 113.512Z" fill="black"/>
<path d="M54.6665 110.876C54.5882 111.007 54.6926 111.137 54.9275 111.137C55.2928 111.137 56.3626 112.546 56.3626 113.016C56.3626 113.147 55.9973 113.225 55.5798 113.225C53.675 113.225 52.7095 116.121 54.1446 117.53C54.8753 118.287 55.9712 118.365 56.8062 117.791C58.5545 116.565 57.9804 111.816 55.9973 111.007C54.9014 110.537 54.8753 110.537 54.6665 110.876ZM56.3626 115.704C56.3626 117.478 55.8668 118.313 55.2406 117.687C54.7709 117.217 54.8231 114.06 55.3189 113.747C55.9973 113.329 56.3626 113.982 56.3626 115.704Z" fill="black"/>
<path d="M60.3288 113.408C60.9028 113.564 61.1899 114.451 60.7985 114.921C60.5897 115.156 60.5897 115.312 60.7985 115.443C60.955 115.547 61.0594 116.069 61.0072 116.643C60.955 117.765 61.2942 118.287 61.9988 118.13C62.3902 118.052 62.4424 117.791 62.3902 116.095C62.338 113.903 61.8683 113.199 60.5636 113.251C60.1461 113.277 60.0678 113.329 60.3288 113.408Z" fill="black"/>
<path d="M59.155 113.642C58.8158 113.982 58.9723 114.791 59.3638 114.791C59.7813 114.791 59.8073 114.66 59.5203 113.929C59.442 113.668 59.2594 113.538 59.155 113.642Z" fill="black"/>
<path d="M59.1287 115.86C58.0327 116.721 58.3458 118.183 59.6505 118.183C60.3812 118.183 60.6943 117.765 60.1202 117.556C59.781 117.426 59.7288 117.165 59.8332 116.356C59.9115 115.782 59.9376 115.312 59.8854 115.312C59.8593 115.312 59.5201 115.547 59.1287 115.86Z" fill="black"/>
<path d="M63.4081 127.525C62.834 127.785 62.8079 128.36 63.3298 128.751C63.6951 129.038 63.8256 129.012 64.0865 128.673C64.3735 128.281 64.2953 127.29 63.956 127.342C63.8778 127.342 63.6168 127.42 63.4081 127.525Z" fill="black"/>
<path d="M71.8883 128.098C71.81 128.229 71.9144 128.359 72.1231 128.359C72.3319 128.359 72.5928 128.229 72.6711 128.098C72.7494 127.942 72.645 127.837 72.4363 127.837C72.2275 127.837 71.9666 127.942 71.8883 128.098Z" fill="black"/>
<path d="M104.532 128.438C104.349 129.194 104.819 129.716 105.419 129.403C105.993 129.09 105.836 128.203 105.158 128.02C104.845 127.942 104.636 128.072 104.532 128.438Z" fill="black"/>
<path d="M67.1393 128.281C66.4609 128.542 66.774 129.638 67.609 130.082C68.157 130.343 68.3397 130.577 68.157 130.76C67.9743 130.943 67.7134 130.917 67.322 130.708C66.9306 130.499 66.6697 130.473 66.487 130.656C66.0956 131.047 67.1654 131.543 68.1831 131.439C68.8876 131.386 69.0442 131.23 69.0964 130.63C69.1486 130.238 69.0964 129.925 68.9659 129.925C68.8615 129.925 68.4701 129.664 68.1048 129.377L67.4525 128.829L68.2875 128.986C69.279 129.142 69.6443 128.777 68.9137 128.386C68.3658 128.099 67.6873 128.046 67.1393 128.281Z" fill="black"/>
<path d="M100.435 128.881L100.148 129.69L99.574 129.168C98.8956 128.542 98.1128 128.437 98.1128 128.985C98.1128 130.055 98.7651 132.012 99.1044 132.012C99.3914 132.012 99.4436 131.803 99.3392 131.099C99.1826 130.107 99.4175 129.925 99.9654 130.603C100.252 130.968 100.331 130.942 100.618 130.394C100.957 129.742 100.957 129.742 101.401 131.151C101.453 131.334 101.662 131.49 101.896 131.49C102.314 131.49 102.288 130.786 101.766 128.881C101.505 127.889 100.774 127.889 100.435 128.881Z" fill="black"/>
<path d="M70.3228 129.273C69.9574 129.612 69.6704 130.134 69.6704 130.447C69.6704 131.125 70.7924 132.273 71.4448 132.273C71.7318 132.273 72.2537 132.039 72.6451 131.725C73.5584 130.995 73.5584 129.899 72.6451 129.168C71.7318 128.464 71.1056 128.49 70.3228 129.273ZM72.2798 129.925C72.5668 130.473 72.2276 131.491 71.7579 131.491C71.1056 131.491 70.7142 131.099 70.7142 130.447C70.7142 129.377 71.784 129.012 72.2798 129.925Z" fill="black"/>
<path d="M95.5557 129.064C94.9816 129.168 94.9555 129.246 95.1382 130.786C95.2426 131.673 95.3469 132.43 95.373 132.482C95.4252 132.534 96.0515 132.482 96.7821 132.378C97.6954 132.273 98.1129 132.091 98.1129 131.83C98.1129 131.543 97.8519 131.464 97.1474 131.543C96.5733 131.595 96.1558 131.49 96.1037 131.282C96.0254 131.073 96.2602 130.969 96.7821 130.969C97.3562 130.969 97.591 130.838 97.591 130.551C97.591 130.238 97.4083 130.186 96.8082 130.316C96.208 130.447 96.0254 130.394 96.0254 130.081C96.0254 129.794 96.2602 129.664 96.8082 129.664C97.3301 129.664 97.591 129.533 97.591 129.272C97.591 128.881 96.8865 128.803 95.5557 129.064Z" fill="black"/>
<path d="M93.0506 129.377C91.7981 129.534 91.0153 130.186 92.0851 130.186C92.5287 130.186 92.6331 130.395 92.7897 131.491C92.894 132.326 93.0767 132.795 93.3115 132.795C93.5725 132.795 93.6768 132.404 93.6768 131.36C93.6768 130.264 93.7551 129.925 94.0683 129.925C94.277 129.925 94.4597 129.742 94.4597 129.534C94.4597 129.325 94.4336 129.168 94.4075 129.194C94.3553 129.194 93.7551 129.299 93.0506 129.377Z" fill="black"/>
<path d="M75.6722 129.925C74.4458 131.152 75.4113 132.795 77.3422 132.795C78.4121 132.795 78.4903 132.743 78.6469 131.987C78.7252 131.543 78.8035 130.995 78.8035 130.812C78.8035 130.186 77.7858 129.403 76.9769 129.403C76.5333 129.403 75.9592 129.638 75.6722 129.925ZM77.7075 130.891C77.7858 131.334 77.7075 131.439 77.3944 131.334C77.1074 131.23 76.9769 131.334 76.9769 131.621C76.9769 132.143 76.4811 132.039 76.0897 131.439C75.9071 131.125 75.9332 130.891 76.1941 130.577C76.6899 129.977 77.6032 130.186 77.7075 130.891Z" fill="black"/>
<path d="M79.3252 131.047C79.3252 132.639 79.6122 133.056 80.7604 133.056C81.9085 133.056 82.4564 132.352 82.4564 130.89C82.4564 129.142 81.8041 129.22 81.5693 130.995C81.4127 132.169 81.3344 132.299 80.8125 132.221C80.3168 132.143 80.2385 131.96 80.1602 130.89C80.108 130.029 79.9775 129.664 79.6905 129.664C79.4296 129.664 79.3252 130.003 79.3252 131.047Z" fill="black"/>
<path d="M83.1612 129.821C83.0568 129.925 82.9785 130.708 82.9785 131.543V133.056H84.4137C86.0315 133.056 86.3707 132.613 84.8834 132.482C83.657 132.378 83.5787 131.908 84.7529 131.804C85.1965 131.751 85.5879 131.621 85.5879 131.491C85.5879 131.36 85.1965 131.23 84.7529 131.177C83.5787 131.073 83.683 130.603 84.8834 130.499C85.5096 130.447 85.8488 130.29 85.7705 130.108C85.6662 129.768 83.4743 129.533 83.1612 129.821Z" fill="black"/>
<path d="M86.3184 129.925C86.2923 130.055 86.2923 130.838 86.3184 131.621C86.3967 132.639 86.5271 133.056 86.7881 133.056C87.0229 133.056 87.1534 132.743 87.1534 132.065V131.099L87.6492 131.725L88.1189 132.352L88.5364 131.751L88.9539 131.177L89.0321 132.038C89.0843 132.639 89.267 132.952 89.5801 133.004C89.9193 133.082 90.0237 132.9 90.0237 132.195C90.0237 129.794 89.3975 129.038 88.5364 130.342L88.0928 131.021L87.597 130.342C87.1012 129.664 86.475 129.455 86.3184 129.925Z" fill="black"/>
</svg>
